<?xml version="1.0" encoding="UTF-8"?>
<svg id="Layer_1" data-name="Layer 1" xmlns="http://www.w3.org/2000/svg" viewBox="0 0 387.15 168.68">
  <defs>
    <style>
      .cls-1 {
        fill: #e07b53;
      }

      .cls-2 {
        fill: #d5c3a0;
      }

      .cls-3 {
        fill: #043a20;
      }

      .cls-4 {
        fill: #1c7c54;
      }
    </style>
  </defs>
  <g>
    <rect class="cls-1" x="379" y="156.85" width="8.15" height="6.16"/>
    <g>
      <path class="cls-3" d="M192.51,163.01v-56h11.44c4.11,0,7.08.8,8.93,2.4,1.84,1.6,2.78,4.25,2.8,7.96.02,1.94.04,3.6.05,5.01.01,1.4-.02,2.78-.09,4.13-.12,2.15-.58,3.84-1.4,5.07-.82,1.24-2.11,2.1-3.88,2.59v1.22c1.84.54,3.19,1.42,4.02,2.66.84,1.24,1.32,2.93,1.44,5.08.07,1.75.09,3.34.07,4.76-.02,1.42-.05,3-.07,4.73-.14,3.71-1.11,6.37-2.91,7.98s-4.74,2.42-8.82,2.42h-11.58ZM199.3,131.69h5.07c1.59,0,2.72-.43,3.41-1.28.69-.85,1.06-2.2,1.1-4.04.05-1.66.06-3.2.05-4.64-.01-1.43-.03-2.99-.05-4.67,0-1.4-.38-2.42-1.14-3.04-.76-.63-2.02-.94-3.8-.94h-4.65v18.62ZM199.3,156.85h4.79c1.77,0,3.03-.33,3.76-1,.73-.66,1.13-1.77,1.17-3.31.05-1.66.07-3.19.07-4.58s-.02-2.92-.07-4.55c-.05-2.1-.42-3.56-1.12-4.38-.7-.82-1.94-1.23-3.71-1.23h-4.9v19.04Z"/>
      <path class="cls-3" d="M230.24,163.47c-2.78,0-4.89-.69-6.35-2.08-1.46-1.39-2.32-3.6-2.57-6.63-.02-.54-.04-1.1-.05-1.68-.01-.58,0-1.14.02-1.68.14-1.73.5-3.25,1.07-4.58s1.5-2.53,2.78-3.6c1.28-1.07,3.04-2.09,5.29-3.04,1.17-.51,2.37-1.02,3.62-1.5,1.25-.49,2.53-.93,3.83-1.33v-7.52c0-1.45-.33-2.5-.98-3.17-.65-.67-1.79-1-3.4-1-1.33,0-2.4.29-3.2.86-.81.57-1.24,1.55-1.31,2.92-.02.61-.04,1.36-.05,2.26-.01.9-.01,1.76,0,2.57.01.82.03,1.41.05,1.79h-6.62c-.02-.82-.05-1.74-.07-2.78-.02-1.04-.02-2.04,0-2.99.09-2.26.52-4.12,1.28-5.57.76-1.45,1.95-2.51,3.59-3.2,1.63-.69,3.84-1.03,6.62-1.03s4.98.37,6.54,1.1c1.56.73,2.67,1.9,3.31,3.48.64,1.59.96,3.65.96,6.2l-.04,31.78h-6.79v-4.06h-.95c-.7,1.45-1.5,2.56-2.4,3.34-.9.78-2.29,1.17-4.18,1.17ZM232.44,158.46c1.24,0,2.31-.32,3.22-.96.91-.64,1.62-1.55,2.13-2.71l.07-12.25c-.93.28-1.89.61-2.87,1-.98.39-2.02.89-3.12,1.52-1.52.79-2.51,1.72-2.98,2.78-.47,1.06-.73,2.26-.8,3.59,0,.63,0,1.15.02,1.56.01.41.03.86.05,1.35.12,1.28.54,2.29,1.28,3.03s1.73,1.1,2.99,1.1Z"/>
      <path class="cls-3" d="M261.46,163.57c-3.83,0-6.53-.78-8.1-2.33-1.57-1.55-2.43-4.1-2.57-7.65-.02-1-.03-1.95-.02-2.85.01-.9.04-1.77.09-2.61h6.12c-.07,1.42-.09,2.62-.07,3.6.02.98.03,1.84.03,2.59.02,1.49.39,2.54,1.1,3.13.71.59,1.85.89,3.41.89,1.75,0,3.01-.3,3.78-.91.77-.61,1.17-1.67,1.19-3.19v-4.06c-.02-1.4-.25-2.46-.68-3.19-.43-.72-1.25-1.26-2.47-1.61l-4.2-1.19c-1.96-.54-3.55-1.23-4.78-2.06-1.23-.84-2.13-1.92-2.71-3.24-.58-1.32-.9-3-.94-5.06v-3.36c.07-3.59.93-6.17,2.59-7.72s4.53-2.33,8.61-2.33c3.78,0,6.47.76,8.08,2.27,1.61,1.52,2.47,4.06,2.59,7.63.02.49.04,1.34.04,2.54s-.05,2.15-.14,2.85h-6.3c.05-.68.08-1.41.09-2.19.01-.78.01-1.53,0-2.24-.01-.71-.03-1.3-.05-1.77-.05-1.47-.38-2.48-1-3.04s-1.72-.84-3.31-.84-2.77.29-3.4.86c-.63.57-.98,1.58-1.05,3.03-.02.35-.05.83-.07,1.44-.02.61-.02,1.35,0,2.24.05,1.49.26,2.68.65,3.55.38.88,1.27,1.51,2.64,1.91l3.88.98c2.82.68,4.92,1.8,6.3,3.36,1.38,1.56,2.06,3.86,2.06,6.9,0,.7,0,1.34-.02,1.91-.01.57-.03,1.22-.05,1.94-.07,3.5-.95,6.01-2.64,7.53-1.69,1.52-4.59,2.27-8.7,2.27Z"/>
      <path class="cls-3" d="M278.33,113.17v-6.16h8.15v6.16h-8.15ZM278.99,163.01v-42h6.79v42h-6.79Z"/>
      <path class="cls-3" d="M293.27,163.01v-56h6.79v56h-6.79Z"/>
      <path class="cls-1" d="M306.89,113.17v-6.16h8.15v6.16h-8.15ZM307.55,163.01v-42h6.79v42h-6.79Z"/>
      <path class="cls-3" d="M332.86,163.57c-4.08,0-6.99-.79-8.73-2.36-1.74-1.57-2.71-4.11-2.92-7.61-.05-1.54-.09-3.31-.12-5.3-.04-2-.05-4.07-.05-6.21s.02-4.22.05-6.23c.03-2.01.08-3.78.12-5.32.21-3.62,1.22-6.2,3.03-7.75,1.81-1.55,4.65-2.33,8.52-2.33s6.74.78,8.47,2.33,2.67,4.04,2.84,7.47c.02.54.05,1.53.07,2.97.02,1.45.03,3.07.02,4.88-.01,1.81-.06,3.53-.16,5.16h-16.06c0,1.77.02,3.58.05,5.43.03,1.84.08,3.72.12,5.63.05,1.47.43,2.51,1.16,3.12.72.61,1.89.91,3.5.91s2.75-.3,3.41-.91c.67-.61,1.03-1.66,1.1-3.15.05-.7.06-1.62.05-2.75-.01-1.13-.05-2.35-.12-3.66h6.79c.07.68.11,1.61.12,2.8.01,1.19,0,2.16-.05,2.9-.16,3.55-1.1,6.1-2.8,7.65-1.7,1.55-4.5,2.33-8.4,2.33ZM327.96,138.27h9.38c.02-1.19.04-2.38.04-3.57s-.01-2.24-.04-3.15c-.02-.91-.05-1.56-.07-1.96-.09-1.45-.49-2.47-1.19-3.06-.7-.6-1.81-.89-3.33-.89-1.7,0-2.89.33-3.57.98-.68.65-1.04,1.65-1.09,2.98-.02,1.42-.05,2.86-.09,4.32-.03,1.46-.05,2.91-.05,4.36Z"/>
      <path class="cls-3" d="M350.46,163.01v-56h6.48v10.78l-.74,21.07h1.33l3.96-10.08,3.78-7.77h7.14l-8.4,16.77,10.22,25.23h-7.14l-7.35-18.23-2.62,4.51v13.72h-6.65Z"/>
    </g>
    <g>
      <path class="cls-3" d="M192.51,99.68v-56h11.44c4.11,0,7.08.8,8.93,2.4,1.84,1.6,2.78,4.25,2.8,7.96.02,1.94.04,3.6.05,5.01.01,1.4-.02,2.78-.09,4.13-.12,2.15-.58,3.84-1.4,5.07-.82,1.24-2.11,2.1-3.88,2.59v1.22c1.84.54,3.19,1.42,4.02,2.66.84,1.24,1.32,2.93,1.44,5.08.07,1.75.09,3.34.07,4.76-.02,1.42-.05,3-.07,4.73-.14,3.71-1.11,6.37-2.91,7.98s-4.74,2.42-8.82,2.42h-11.58ZM199.3,68.35h5.07c1.59,0,2.72-.43,3.41-1.28.69-.85,1.06-2.2,1.1-4.04.05-1.66.06-3.2.05-4.64-.01-1.43-.03-2.99-.05-4.67,0-1.4-.38-2.42-1.14-3.04-.76-.63-2.02-.94-3.8-.94h-4.65v18.62ZM199.3,93.52h4.79c1.77,0,3.03-.33,3.76-1,.73-.66,1.13-1.77,1.17-3.31.05-1.66.07-3.19.07-4.58s-.02-2.92-.07-4.55c-.05-2.1-.42-3.56-1.12-4.38-.7-.82-1.94-1.23-3.71-1.23h-4.9v19.04Z"/>
      <path class="cls-3" d="M233.67,100.24c-4.08,0-6.99-.79-8.73-2.36-1.74-1.57-2.71-4.11-2.92-7.61-.05-1.54-.09-3.31-.12-5.3-.04-2-.05-4.07-.05-6.21s.02-4.22.05-6.23c.03-2.01.08-3.78.12-5.32.21-3.62,1.22-6.2,3.03-7.75,1.81-1.55,4.65-2.33,8.52-2.33s6.74.78,8.47,2.33,2.67,4.04,2.84,7.47c.02.54.05,1.53.07,2.97.02,1.45.03,3.07.02,4.88-.01,1.81-.06,3.53-.16,5.16h-16.06c0,1.77.02,3.58.05,5.43.03,1.84.08,3.72.12,5.63.05,1.47.43,2.51,1.16,3.12.72.61,1.89.91,3.5.91s2.75-.3,3.41-.91c.67-.61,1.03-1.66,1.1-3.15.05-.7.06-1.62.05-2.75-.01-1.13-.05-2.35-.12-3.66h6.79c.07.68.11,1.61.12,2.8.01,1.19,0,2.16-.05,2.9-.16,3.55-1.1,6.1-2.8,7.65-1.7,1.55-4.5,2.33-8.4,2.33ZM228.77,74.93h9.38c.02-1.19.04-2.38.04-3.57s-.01-2.24-.04-3.15c-.02-.91-.05-1.56-.07-1.96-.09-1.45-.49-2.47-1.19-3.06-.7-.6-1.81-.89-3.33-.89-1.7,0-2.89.33-3.57.98-.68.65-1.04,1.65-1.09,2.98-.02,1.42-.05,2.86-.09,4.32-.03,1.46-.05,2.91-.05,4.36Z"/>
      <path class="cls-3" d="M251.27,99.68v-56h6.93v18.06h1.33c.86-1.54,1.83-2.69,2.89-3.46,1.06-.77,2.58-1.16,4.57-1.16,2.71,0,4.73.75,6.07,2.26,1.34,1.51,2.02,3.95,2.05,7.33l.07,32.97h-6.9l-.07-33.53c0-1.38-.3-2.37-.91-2.99-.61-.62-1.6-.93-2.98-.93s-2.68.32-3.76.95-1.87,1.59-2.36,2.87v33.63h-6.93Z"/>
      <path class="cls-3" d="M293.62,100.24c-2.78,0-5-.37-6.67-1.1-1.67-.73-2.9-1.9-3.69-3.5-.79-1.6-1.26-3.69-1.4-6.28-.05-1.28-.09-2.83-.12-4.64-.04-1.81-.05-3.7-.05-5.69s.02-3.94.05-5.86c.03-1.92.08-3.65.12-5.16.14-2.64.61-4.75,1.4-6.35.79-1.6,2.02-2.75,3.69-3.47,1.67-.71,3.89-1.07,6.67-1.07s5.06.37,6.72,1.12c1.66.75,2.86,1.91,3.62,3.5.76,1.59,1.21,3.67,1.35,6.27.07,1.42.12,3.04.14,4.85.02,1.81.04,3.69.04,5.64s-.02,3.86-.05,5.74c-.04,1.88-.08,3.59-.12,5.13-.14,2.59-.59,4.68-1.36,6.28-.77,1.6-1.98,2.77-3.64,3.5-1.66.73-3.89,1.1-6.69,1.1ZM293.62,95.02c1.8,0,3.05-.34,3.76-1.02.71-.68,1.09-1.73,1.14-3.15.07-2.1.12-4.16.16-6.18.03-2.02.06-4.02.07-6,.01-1.98,0-3.99-.05-6.02-.05-2.03-.1-4.11-.18-6.23-.05-1.45-.44-2.49-1.19-3.13-.75-.64-1.98-.96-3.71-.96s-3,.34-3.76,1.02c-.76.68-1.15,1.74-1.17,3.19-.09,1.73-.16,3.58-.19,5.56-.04,1.98-.05,4.01-.05,6.09s.02,4.18.07,6.32c.05,2.13.1,4.24.17,6.32.07,1.45.47,2.51,1.21,3.19s1.98,1.02,3.73,1.02Z"/>
      <path class="cls-3" d="M320.29,100.24c-2.66,0-4.72-.75-6.18-2.26-1.46-1.51-2.19-3.97-2.19-7.4v-32.9h6.86l.07,33.5c0,1.38.3,2.38.89,3.01.59.63,1.58.95,2.96.95s2.57-.33,3.71-1c1.14-.67,1.96-1.6,2.45-2.82v-33.63h6.9v42h-6.9v-4.06h-1.08c-.91,1.63-1.98,2.81-3.2,3.54-1.23.72-2.65,1.08-4.29,1.08Z"/>
      <path class="cls-3" d="M350.88,100.24c-2.71,0-4.72-.75-6.04-2.24-1.32-1.49-2.06-3.94-2.22-7.35-.07-1.73-.12-3.64-.14-5.74-.02-2.1-.04-4.23-.04-6.4s.02-4.28.05-6.32c.03-2.04.08-3.87.12-5.48.12-3.48.89-5.94,2.33-7.4,1.44-1.46,3.46-2.19,6.07-2.19,1.96,0,3.48.39,4.55,1.16s2.03,1.92,2.87,3.46h1.08v-18.06h6.93v56h-6.93v-4.06h-1.15c-.84,1.52-1.81,2.67-2.92,3.45-1.11.78-2.63,1.17-4.57,1.17ZM353.47,95.13c1.31,0,2.52-.32,3.64-.95s1.92-1.59,2.42-2.87v-25.27c-.49-1.31-1.29-2.27-2.42-2.89-1.12-.62-2.33-.93-3.64-.93s-2.33.3-2.92.89c-.6.6-.92,1.57-.96,2.92-.14,2.75-.23,5.61-.26,8.56-.03,2.95-.03,5.85,0,8.68.04,2.83.1,5.42.19,7.75.07,1.49.41,2.55,1.03,3.17.62.62,1.59.93,2.92.93Z"/>
    </g>
    <g>
      <path class="cls-3" d="M197.56,34.25c-1.75,0-3.01-.34-3.78-1.02-.77-.68-1.18-1.81-1.24-3.39-.01-.76-.02-1.45-.03-2.08s0-1.27,0-1.91c.01-.64.03-1.35.05-2.13h2.16c-.05,1.1-.08,2.16-.08,3.18,0,1.01.02,2.06.08,3.14.04.85.25,1.44.66,1.76.4.32,1.12.49,2.15.49.97,0,1.65-.16,2.04-.49.39-.32.61-.91.66-1.76.05-.55.08-1.15.08-1.81,0-.65,0-1.3-.02-1.95s-.04-1.25-.06-1.8c-.01-1.08-.19-1.87-.55-2.36-.35-.49-.97-.86-1.85-1.1l-1.69-.4c-.91-.24-1.63-.57-2.14-.99s-.88-1-1.11-1.75-.35-1.73-.39-2.93c-.01-.84-.01-1.74,0-2.69.01-.95.02-1.92.04-2.89.02-1.04.2-1.89.54-2.53s.87-1.11,1.59-1.4c.73-.29,1.68-.43,2.85-.43,1.67,0,2.88.34,3.63,1.02.75.68,1.15,1.8,1.2,3.38.02.82.03,1.69.03,2.62,0,.93-.02,1.92-.05,2.98h-2.18c.04-1.16.06-2.21.06-3.12,0-.92,0-1.81-.04-2.67-.04-.85-.25-1.44-.63-1.76-.38-.32-1.07-.48-2.05-.48s-1.69.16-2.08.48c-.39.32-.61.9-.66,1.76-.05,1-.07,1.95-.06,2.85,0,.91.03,1.87.06,2.89.02,1.18.16,2.02.42,2.52.26.5.72.84,1.38,1.01l1.64.38c1.07.25,1.9.59,2.51,1.03s1.04,1.01,1.31,1.75c.26.73.41,1.68.45,2.84.02.56.04,1.16.05,1.77,0,.62,0,1.24,0,1.85,0,.62-.02,1.2-.05,1.74-.06,1.58-.47,2.71-1.22,3.39-.76.68-1.99,1.02-3.69,1.02Z"/>
      <path class="cls-3" d="M211.03,34.28c-1.69,0-2.87-.32-3.53-.97-.66-.65-.99-1.76-.99-3.35l-.02-15.75h-1.58v-1.78h1.67v-6.12h2.23v6.12h3.65v1.78h-3.74l.02,15.98c0,.9.15,1.51.44,1.83s.93.48,1.92.48c.37,0,.68,0,.93-.03.25-.02.54-.04.87-.08v1.71c-.29.05-.58.09-.89.13-.31.04-.63.05-.98.05Z"/>
      <path class="cls-3" d="M214.68,7.82v-2.59h3.37v2.59h-3.37ZM215.25,34.03V12.43h2.21v21.6h-2.21Z"/>
      <path class="cls-3" d="M228.68,19.72c.02-.42.04-.83.04-1.23,0-.4,0-.79,0-1.18,0-.38,0-.75,0-1.1-.01-.85-.22-1.44-.62-1.76-.4-.32-1.05-.49-1.95-.49s-1.56.17-1.95.5c-.39.34-.6.93-.62,1.78-.02,1.12-.04,2.24-.05,3.38-.01,1.14-.02,2.29-.02,3.46s0,2.35.02,3.54c.01,1.19.03,2.38.05,3.58.02.85.24,1.45.66,1.78.41.34,1.06.5,1.94.5s1.55-.17,1.94-.5.6-.93.61-1.81c0-.54,0-1.08,0-1.63s0-1.17-.04-1.88h2.21c.04.5.06,1.08.06,1.72,0,.64,0,1.18-.03,1.61-.06,1.5-.45,2.59-1.18,3.26s-1.92,1.01-3.59,1.01-2.91-.34-3.65-1.01c-.74-.67-1.13-1.76-1.18-3.26-.02-.95-.05-1.98-.06-3.1-.02-1.12-.03-2.28-.03-3.48s0-2.4.02-3.58c.01-1.18.04-2.31.07-3.38.06-1.54.46-2.64,1.2-3.3s1.94-1,3.61-1,2.89.33,3.64.99c.74.66,1.13,1.75,1.15,3.26.01.52.02,1.06.02,1.62s-.02,1.12-.05,1.67h-2.21Z"/>
      <path class="cls-3" d="M234.59,34.03V5.23h2.27v9.09h.5c.38-.73.83-1.27,1.33-1.62.5-.35,1.21-.52,2.12-.52,1.26,0,2.18.34,2.76,1.01.58.67.87,1.73.87,3.17l.02,17.68h-2.23l-.02-17.82c0-.82-.17-1.4-.5-1.76-.34-.35-.88-.53-1.62-.53-.84,0-1.52.19-2.05.56-.53.37-.92.94-1.19,1.69v17.86h-2.27Z"/>
      <path class="cls-3" d="M253.23,34.28c-1.69,0-2.87-.32-3.53-.97-.66-.65-.99-1.76-.99-3.35l-.02-15.75h-1.58v-1.78h1.67v-6.12h2.23v6.12h3.65v1.78h-3.74l.02,15.98c0,.9.15,1.51.44,1.83s.93.48,1.92.48c.37,0,.68,0,.93-.03.25-.02.54-.04.87-.08v1.71c-.29.05-.58.09-.89.13-.31.04-.63.05-.98.05Z"/>
      <path class="cls-3" d="M256.89,7.82v-2.59h3.37v2.59h-3.37ZM257.46,34.03V12.43h2.21v21.6h-2.21Z"/>
      <path class="cls-3" d="M263.85,34.03V12.43h2.25v1.89h.52c.37-.72.84-1.26,1.4-1.61s1.25-.53,2.06-.53c1.26,0,2.18.34,2.76,1.01.58.67.88,1.73.89,3.17v17.68h-2.23l-.02-17.82c-.01-.82-.18-1.4-.51-1.76-.33-.35-.87-.53-1.61-.53s-1.4.2-1.99.59c-.59.4-1.02.95-1.27,1.66v17.86h-2.25Z"/>
      <path class="cls-3" d="M282.43,39.79c-1.69,0-3.01-.25-3.94-.76-.94-.51-1.43-1.26-1.48-2.24,0-.16,0-.29,0-.41,0-.12,0-.24,0-.36.01-.67.27-1.2.78-1.59.51-.39,1.04-.63,1.59-.73v-.41c-.67-.22-1.13-.48-1.37-.78-.24-.31-.37-.66-.4-1.07,0-.04,0-.11-.02-.23-.01-.12-.01-.23,0-.34.02-.47.21-.88.55-1.22.34-.35.75-.56,1.23-.63v-.45c-.66-.31-1.14-.77-1.44-1.38-.3-.61-.47-1.41-.52-2.42-.02-.53-.04-1.15-.05-1.85-.01-.71-.02-1.45-.02-2.21s0-1.51.02-2.23c.01-.72.03-1.36.05-1.93.06-1.06.25-1.9.58-2.53s.83-1.09,1.51-1.38c.68-.29,1.57-.43,2.67-.43,1.2,0,2.14.16,2.83.49.68.32,1.18.85,1.49,1.58h.41c.05-.56.29-1.01.72-1.33.43-.32.97-.49,1.6-.49v1.78h-.34c-.59,0-1.06.23-1.41.68-.35.46-.53,1.14-.53,2.05v.86c.01.19.02.57.03,1.14,0,.57,0,1.22,0,1.94s0,1.44-.02,2.13c-.01.7-.03,1.27-.05,1.73-.05,1.04-.24,1.88-.57,2.51-.33.63-.83,1.08-1.5,1.35-.67.27-1.57.41-2.68.41-.89-.01-1.56.09-2.02.3-.46.21-.68.59-.68,1.14v.23c0,.31.11.56.33.76.22.19.55.33,1,.42.44.09,1,.15,1.67.17,1.79.07,3.12.35,4,.84.88.49,1.36,1.35,1.43,2.58v.88c-.05.86-.31,1.55-.79,2.05s-1.12.86-1.94,1.07-1.73.31-2.75.31ZM282.36,38.13c.77,0,1.41-.05,1.92-.15.51-.1.91-.29,1.2-.56s.46-.66.5-1.16c.02-.14.04-.27.04-.39s-.01-.24-.04-.39c-.04-.46-.18-.8-.44-1.04-.26-.24-.65-.41-1.16-.5-.52-.09-1.19-.14-2.02-.15-1.01-.04-1.81.04-2.41.23s-.92.7-.97,1.53c-.01.19-.02.33-.02.41s0,.19.02.32c.04.52.2.91.48,1.17.28.26.67.44,1.16.53.49.09,1.07.13,1.75.13ZM282.18,27.28c.92,0,1.57-.18,1.94-.53.37-.35.58-.98.64-1.86.02-.44.04-1.06.05-1.85.01-.79.02-1.63.02-2.52s0-1.72-.02-2.49c-.01-.77-.03-1.36-.05-1.77-.05-.84-.25-1.43-.61-1.78-.36-.35-1.01-.52-1.94-.52s-1.58.18-1.97.53c-.39.35-.61.98-.66,1.88-.01.35-.02.91-.04,1.67-.01.77-.02,1.6-.03,2.51,0,.91,0,1.76,0,2.55s.03,1.4.05,1.82c.06.86.28,1.48.66,1.84.38.36,1.03.54,1.95.54Z"/>
    </g>
    <rect class="cls-3" x="307.55" y="121.01" width="6.79" height="42"/>
  </g>
  <g>
    <path class="cls-3" d="M.65,97.36l-.65-26.69C0,31.64,31.64,0,70.67,0l26.69.65c39.03,0,70.67,31.64,70.67,70.67l.65,26.69c0,39.03-31.64,70.67-70.67,70.67l-26.69-.65c-39.03,0-70.67-31.64-70.67-70.67Z"/>
    <path class="cls-2" d="M120.09,118.3s13.62-1.57,17.43.55c2.59,1.44,5.32,5.25,6.64,11.32,1.02,4.7-1.73,12.26-1.73,12.26,0,0-6.83,2.78-12.76,1.74-4.02-.7-9.62-4.05-10.9-6.73-2.06-4.33,1.32-19.14,1.32-19.14Z"/>
    <path class="cls-2" d="M50.39,48.6s1.57-13.62-.55-17.43c-1.44-2.59-5.25-5.32-11.32-6.64-4.7-1.02-12.26,1.73-12.26,1.73,0,0-2.78,6.83-1.74,12.76.7,4.02,4.05,9.62,6.73,10.9,4.33,2.06,19.14-1.32,19.14-1.32Z"/>
    <path class="cls-2" d="M50.39,120.09s1.57,13.62-.55,17.43c-1.44,2.59-5.25,5.32-11.32,6.64-4.7,1.02-12.26-1.73-12.26-1.73,0,0-2.78-6.83-1.74-12.76.7-4.02,4.05-9.62,6.73-10.9,4.33-2.06,19.14,1.32,19.14,1.32Z"/>
    <path class="cls-2" d="M120.09,50.39s13.62,1.57,17.43-.55c2.59-1.44,5.32-5.25,6.64-11.32,1.02-4.7-1.73-12.26-1.73-12.26,0,0-6.83-2.78-12.76-1.74-4.02.7-9.62,4.05-10.9,6.73-2.06,4.33,1.32,19.14,1.32,19.14Z"/>
    <path class="cls-1" d="M29.26,84.15l-8.34,7.11s-3.76-.49-5.95-2.22-5.29-6.27-5.29-6.27c0,0,3.46-3.72,5.55-4.96s4.94-2.2,4.94-2.2l9.09,8.54Z"/>
    <path class="cls-4" d="M50.76,84.47s-13.63,2-20.25,7.5-6.33,7.97-5.63,10.99c-2.82-.22-6.9-6.52-4.05-11.91,3.26-6.17,8.34-7.11,8.34-7.11,0,0-6.58-2.01-9.09-8.54s1.79-10.38,3.74-11.32c0,0-1.62,5.19,5.41,10.99s21.53,9.4,21.53,9.4Z"/>
    <path class="cls-1" d="M83.89,29.52l7.11-8.34s-.49-3.76-2.22-5.95-6.27-5.29-6.27-5.29c0,0-3.72,3.46-4.96,5.55s-2.2,4.94-2.2,4.94l8.54,9.09Z"/>
    <path class="cls-4" d="M84.21,51.02s2-13.63,7.5-20.25c5.39-6.48,7.97-6.33,10.99-5.63-.22-2.82-6.52-6.9-11.91-4.05-6.17,3.26-7.11,8.34-7.11,8.34,0,0-2.01-6.58-8.54-9.09s-10.38,1.79-11.32,3.74c0,0,5.19-1.62,10.99,5.41s9.4,21.53,9.4,21.53Z"/>
    <path class="cls-1" d="M84.3,139.19l-7.11,8.34s.49,3.76,2.22,5.95,6.27,5.29,6.27,5.29c0,0,3.72-3.46,4.96-5.55s2.2-4.94,2.2-4.94l-8.54-9.09Z"/>
    <path class="cls-4" d="M83.98,117.69s-2,13.63-7.5,20.25-7.97,6.33-10.99,5.63c.22,2.82,6.52,6.9,11.91,4.05,6.17-3.26,7.11-8.34,7.11-8.34,0,0,2.01,6.58,8.54,9.09,6.53,2.51,10.38-1.79,11.32-3.74,0,0-5.19,1.62-10.99-5.41s-9.4-21.53-9.4-21.53Z"/>
    <path class="cls-1" d="M138.93,84.56l8.34-7.11s3.76.49,5.95,2.22,5.29,6.27,5.29,6.27c0,0-3.46,3.72-5.55,4.96s-4.94,2.2-4.94,2.2l-9.09-8.54Z"/>
    <path class="cls-4" d="M117.43,84.24s13.63-2,20.25-7.5c6.48-5.39,6.33-7.97,5.63-10.99,2.82.22,6.9,6.52,4.05,11.91-3.26,6.17-8.34,7.11-8.34,7.11,0,0,6.58,2.01,9.09,8.54,2.51,6.53-1.79,10.38-3.74,11.32,0,0,1.62-5.19-5.41-10.99-7.03-5.8-21.53-9.4-21.53-9.4Z"/>
    <path class="cls-4" d="M121.45,141.29s-2.03.73-4.41-2.15c-3.63-4.4,1.53-12.98-2.77-20.31-4.37-7.44-11.47-11.85-19.7-15.28,0,0-.01,0-.02-.01.99-1.71,2.11-3.2,3.24-4.33,1.5-1.5,3.54-3.08,5.77-4.44,3,8.86,13.25,19.02,17.33,20.32,4.99,1.58,12.14-.78,16.28.12,4.45.97,4.96,5.04,4.96,5.04,0,0-2.66-1.64-5.82-.6-2.71.9-1.52,5.73-4.19,7.4-2.64,1.65-4.96-.1-4.96-.1,0,0,1.63,2.2.33,4.48-1.3,2.28-5.76,1.73-6.97,4.13-1.18,2.34.93,5.73.93,5.73Z"/>
    <path class="cls-2" d="M102.43,132.71c-3.09.29-10.86-.06-16.34-9.71-2.51-4.41-2.79-10.03-.8-16.24,1.51-4.72,4.35-9.56,7.42-12.63,5.44-5.44,17.4-12.81,26.31-9.41,6.53,2.5,13.25,6.33,13.49,15.8.11,4.42-1.93,8.02-5.47,9.63-3.16,1.44-6.89.91-9.3-1.3-2.36-2.17-2.9-4.43-2.94-5.94-.04-1.74.57-2.98.76-3.32.97-1.73,3.16-2.35,4.89-1.38,1.62.91,2.27,2.89,1.54,4.56.04.11.18.39.6.78.22.2.85.33,1.46.05,1.15-.52,1.28-2.04,1.26-2.9-.1-3.76-1.58-6.48-8.87-9.27-3.25-1.24-8.44.62-12.88,3.33-2.23,1.36-4.27,2.94-5.77,4.44-1.13,1.13-2.25,2.63-3.24,4.33-2.88,4.95-4.64,11.62-2.21,15.9,3.28,5.78,7.3,6.3,9.4,6.1.47-.06,1.82-.52,2.24-1.36.36-.73-.32-1.85-1.63-1.77-.73.04-1.01.08-2.21-.1-1.29-.2-2.01-2.42-1.79-3.69.34-1.99,2.76-3.21,4.48-3.26.3,0,.6,0,.92.02,3.07.22,5.54,2.02,6.78,4.94,1.05,2.48.87,5.11-.49,7.41-1.76,2.96-5.16,4.74-7.62,4.98Z"/>
    <path class="cls-4" d="M69.24,70.67c-1.13,1.13-2.63,2.25-4.33,3.24,0,0,0-.01-.01-.02-3.43-8.23-7.83-15.32-15.28-19.7-7.33-4.3-15.91.86-20.31-2.77-2.88-2.38-2.15-4.41-2.15-4.41,0,0,3.4,2.11,5.73.93,2.4-1.21,1.85-5.67,4.13-6.97,2.28-1.3,4.48.33,4.48.33,0,0-1.75-2.32-.1-4.96,1.68-2.67,6.5-1.48,7.4-4.19,1.04-3.15-.6-5.82-.6-5.82,0,0,4.06.5,5.04,4.95.9,4.13-1.46,11.29.12,16.28,1.3,4.08,11.46,14.33,20.32,17.33-1.36,2.23-2.94,4.27-4.44,5.77Z"/>
    <path class="cls-2" d="M74.33,75.76c-3.07,3.07-7.9,5.91-12.63,7.42-6.21,1.98-11.83,1.71-16.24-.8-9.64-5.48-10-13.25-9.71-16.34.24-2.45,2.02-5.85,4.98-7.62,2.3-1.37,4.93-1.54,7.41-.49,2.92,1.24,4.73,3.71,4.94,6.78.03.32.03.62.02.92-.05,1.73-1.28,4.14-3.26,4.49-1.26.22-3.49-.5-3.69-1.79-.18-1.19-.15-1.48-.1-2.2.08-1.31-1.04-2-1.77-1.63-.84.42-1.3,1.77-1.36,2.24-.2,2.1.33,6.12,6.1,9.4,4.28,2.43,10.95.67,15.9-2.21,1.71-.99,3.2-2.11,4.33-3.24,1.5-1.5,3.08-3.54,4.44-5.77,2.71-4.44,4.58-9.64,3.33-12.88-2.79-7.29-5.51-8.77-9.27-8.87-.86-.02-2.38.11-2.9,1.26-.28.61-.15,1.25.06,1.47.38.42.66.57.78.6,1.67-.73,3.66-.08,4.56,1.54.97,1.73.36,3.92-1.38,4.89-.34.19-1.57.8-3.32.76-1.51-.04-3.78-.57-5.94-2.93-2.22-2.41-2.74-6.15-1.3-9.31,1.61-3.54,5.21-5.59,9.63-5.47,9.47.24,13.3,6.96,15.8,13.49,3.4,8.91-3.96,20.86-9.41,26.31Z"/>
    <path class="cls-4" d="M48.21,142.14s1.64-2.66.6-5.82c-.9-2.71-5.72-1.52-7.4-4.19-1.65-2.64.1-4.96.1-4.96,0,0-2.19,1.63-4.48.33s-1.73-5.76-4.13-6.97c-2.34-1.18-5.74.92-5.74.92,0,0-.73-2.03,2.15-4.41,4.39-3.63,12.98,1.53,20.3-2.77,7.44-4.37,11.85-11.47,15.28-19.7,0,0,0,0,0-.01,1.71.99,3.21,2.11,4.34,3.24,1.5,1.5,3.08,3.54,4.44,5.77-8.86,3.01-19.02,13.25-20.31,17.33-1.58,4.99.78,12.14-.12,16.28-.97,4.45-5.04,4.95-5.04,4.95Z"/>
    <path class="cls-2" d="M67.93,132.52c-4.42.11-8.02-1.93-9.63-5.47-1.43-3.15-.91-6.9,1.3-9.31,2.17-2.36,4.43-2.9,5.94-2.94,1.75-.04,2.98.57,3.32.76,1.73.97,2.35,3.16,1.38,4.89-.91,1.62-2.89,2.27-4.56,1.54-.11.03-.39.18-.78.6-.2.22-.33.85-.05,1.47.52,1.15,2.04,1.28,2.9,1.26,3.76-.1,6.48-1.58,9.27-8.87,1.24-3.25-.62-8.44-3.33-12.88-1.36-2.23-2.94-4.27-4.44-5.77-1.13-1.13-2.63-2.25-4.34-3.24-4.95-2.88-11.62-4.64-15.9-2.21-5.77,3.28-6.3,7.3-6.1,9.4.06.47.52,1.82,1.37,2.24.73.36,1.85-.32,1.77-1.63-.04-.73-.08-1.01.1-2.21.2-1.29,2.42-2.01,3.69-1.79,1.99.34,3.21,2.76,3.26,4.49.01.29,0,.6-.02.92-.22,3.07-2.02,5.54-4.95,6.78-2.48,1.05-5.11.88-7.41-.49-2.96-1.76-4.74-5.16-4.97-7.61-.29-3.09.06-10.86,9.71-16.34,4.41-2.51,10.03-2.79,16.24-.8,4.72,1.51,9.56,4.35,12.62,7.42,5.44,5.44,12.81,17.4,9.41,26.3-2.5,6.53-6.33,13.25-15.8,13.49Z"/>
    <path class="cls-4" d="M137.17,53.27c-4.14.9-11.29-1.46-16.28.12-4.08,1.29-14.33,11.46-17.33,20.31-2.23-1.36-4.27-2.94-5.77-4.44-1.13-1.13-2.25-2.63-3.24-4.34,0,0,.01,0,.02,0,8.23-3.43,15.32-7.83,19.7-15.28,4.3-7.33-.86-15.91,2.77-20.3,2.38-2.88,4.41-2.15,4.41-2.15,0,0-2.11,3.4-.92,5.74,1.21,2.4,5.67,1.85,6.96,4.13,1.29,2.28-.33,4.48-.33,4.48,0,0,2.32-1.75,4.96-.1,2.68,1.68,1.49,6.5,4.19,7.4,3.15,1.04,5.82-.6,5.82-.6,0,0-.5,4.06-4.95,5.04Z"/>
    <path class="cls-2" d="M119.01,83.75c-8.91,3.4-20.86-3.96-26.3-9.41-3.07-3.07-5.91-7.91-7.42-12.63-1.98-6.21-1.71-11.83.8-16.24,5.48-9.64,13.25-10,16.34-9.71,2.45.23,5.85,2.02,7.61,4.97,1.37,2.3,1.54,4.93.49,7.41-1.24,2.92-3.71,4.73-6.78,4.95-.32.02-.62.03-.92.02-1.73-.05-4.14-1.28-4.49-3.26-.22-1.26.5-3.49,1.79-3.69,1.19-.18,1.47-.14,2.2-.1,1.31.08,2-1.04,1.63-1.77-.42-.85-1.77-1.31-2.24-1.37-2.1-.2-6.12.33-9.4,6.1-2.43,4.28-.67,10.95,2.21,15.9.99,1.71,2.11,3.21,3.24,4.34,1.5,1.5,3.54,3.08,5.77,4.44,4.44,2.71,9.64,4.58,12.88,3.33,7.29-2.78,8.77-5.51,8.87-9.27.02-.86-.11-2.38-1.26-2.9-.62-.28-1.25-.15-1.47.05-.42.39-.57.66-.6.78.73,1.67.08,3.65-1.54,4.56-1.73.97-3.92.36-4.89-1.38-.19-.34-.8-1.57-.76-3.32.04-1.51.58-3.77,2.93-5.94,2.41-2.21,6.15-2.74,9.31-1.3,3.54,1.61,5.58,5.21,5.47,9.63-.24,9.47-6.96,13.3-13.49,15.8Z"/>
    <path class="cls-1" d="M93.54,75.14c-5.08-5.08-13.33-5.08-18.41,0s-5.08,13.33,0,18.41,13.33,5.08,18.41,0,5.08-13.33,0-18.41ZM81.17,87.57c-1.81-1.81-1.81-4.74,0-6.54s4.74-1.81,6.54,0,1.81,4.74,0,6.54-4.74,1.81-6.54,0Z"/>
  </g>
</svg>